<?xml version="1.0" ?><svg xmlns="http://www.w3.org/2000/svg" width="32.94841mm" height="47.165073mm" viewBox="0 0 32.94841 47.165073">
    <path d="m 31.9994,117.79948 c -1.5267,-1.88927 -0.5603,-4.62192 4.9363,-13.96027 l 5.3976,-9.170581 -4.7226,-8.316099 c -2.5974,-4.573856 -5.0604,-9.146038 -5.4733,-10.16034 -0.8876,-2.180481 -0.019,-4.30105 1.6874,-4.119822 1.3492,0.14329 5.927,5.461574 10.2207,11.87411 l 2.8232,4.216492 6.1664,-8.311103 c 6.1191,-8.24734 6.0938,-8.342691 7.3106,-7.09361 1.6353,1.678836 0.7937,4.626786 -3.3894,11.872937 -2.1794,3.775542 -5.5922,9.171422 -5.6256,9.485846 -0.033,0.314415 2.792,4.64027 6.2787,9.61312 3.4869,4.97288 6.4677,9.9512 6.6247,11.0628 0.6573,4.66084 -4.0531,6.11105 -6.787,2.08953 C 49.2913,104.8854 47.067,101.7756 46.6099,101.73064 c -0.2907,-0.0309 -2.3294,3.25199 -4.53,7.29032 -2.2008,4.03821 -4.549,7.97074 -5.2184,8.739 -1.3845,1.58855 -3.5958,1.60654 -4.8621,0.0395 z" transform="translate(-31.347859,-72.061526)" fill="#FFFFFF"/>
</svg>